<svg xmlns="http://www.w3.org/2000/svg" xmlns:xlink="http://www.w3.org/1999/xlink" width="16" height="16" viewBox="0 0 16 16">
  <defs>
    <clipPath id="clip-path">
      <rect id="Rectangle_27801" data-name="Rectangle 27801" width="16" height="16" transform="translate(2241 603.098)" fill="#fff" stroke="#707070" stroke-width="1"/>
    </clipPath>
    <linearGradient id="linear-gradient" x1="0.5" x2="0.5" y2="1" gradientUnits="objectBoundingBox">
      <stop offset="0" stop-color="#175bf2"/>
      <stop offset="1" stop-color="#8c0ce7"/>
    </linearGradient>
  </defs>
  <g id="Mask_Group_28" data-name="Mask Group 28" transform="translate(-2241 -603.099)" clip-path="url(#clip-path)">
    <g id="Component_113_2" data-name="Component 113 – 2" transform="translate(2241.671 604.342)">
      <path id="Path_83627" data-name="Path 83627" d="M35.7,241.5l1.316-.479a.38.38,0,0,1,.138-.024h8.435a.4.4,0,0,1,.406.406v5.715a1.217,1.217,0,0,1-1.219,1.219H36.654a1.217,1.217,0,0,1-1.219-1.219v-5.236A.4.4,0,0,1,35.7,241.5Z" transform="translate(-33.97 -234.471)" fill="url(#linear-gradient)"/>
      <path id="Path_83629" data-name="Path 83629" d="M157.928,2.649a1.645,1.645,0,0,1,1.113-1.178,1.619,1.619,0,0,1,1.576.341l.943.829.187-1.243a1.646,1.646,0,0,1,1-1.276,1.543,1.543,0,0,1,.317-.089,1.616,1.616,0,0,1,1.284.284,1.641,1.641,0,0,1-.406,2.877l-.878.317-1.081.4h-.008L160.1,4.6a1.743,1.743,0,0,1-.569.1,1.656,1.656,0,0,1-1.6-2.048Z" transform="translate(-156.317 0)" fill="#fcbf29"/>
      <path id="Path_83631" data-name="Path 83631" d="M32.558,55.393l.553,1.528a.412.412,0,0,0,.382.26.38.38,0,0,0,.138-.024l4.2-1.528.382-1.26,1.016.228.894.2,4.2-1.528a.414.414,0,0,0,.244-.52l-.561-1.528a1.211,1.211,0,0,0-1.56-.731l-3.218,1.17-.219.081s-.878,1.593-.9,1.593-.366-.2-.707-.382-.683-.382-.683-.382l-3.429,1.251a1.232,1.232,0,0,0-.691.634A1.2,1.2,0,0,0,32.558,55.393Z" transform="translate(-32.482 -49.052)" fill="#1a73e8"/>
      <g id="Group_63384" data-name="Group 63384" transform="translate(4.236 2.692)">
        <path id="Path_83633" data-name="Path 83633" d="M187.873,241v7.341h-2.438V241Z" transform="translate(-184.143 -237.163)" fill="#fcbf29"/>
        <path id="Path_83634" data-name="Path 83634" d="M199.727,99.4l.219.6.894,2.454-.894.325-1.016.366-.382.138-1.113-3.055Z" transform="translate(-197.435 -99.398)" fill="#1a73e8"/>
      </g>
      <g id="Group_63388" data-name="Group 63388" transform="translate(9.72 9.091)">
        <path id="Path_5045" data-name="Path 5045" d="M648.43,160.723a2.389,2.389,0,1,1-2.389-2.389A2.389,2.389,0,0,1,648.43,160.723Z" transform="translate(-643.652 -158.334)" fill="#fc0"/>
        <path id="Path_5046" data-name="Path 5046" d="M647.868,159.185a2.389,2.389,0,0,0-4.082,2.328Q645.807,160.314,647.868,159.185Z" transform="translate(-643.652 -158.334)" fill="#fcdc59"/>
        <path id="Path_5047" data-name="Path 5047" d="M658.734,171.6a1.816,1.816,0,1,1-1.816-1.816A1.816,1.816,0,0,1,658.734,171.6Z" transform="translate(-654.567 -169.25)" fill="#da8100"/>
        <path id="Path_5048" data-name="Path 5048" d="M660.827,173.718a1.792,1.792,0,1,1-1.792-1.792A1.792,1.792,0,0,1,660.827,173.718Z" transform="translate(-656.609 -171.291)" fill="#f0aa00"/>
        <path id="Path_5070" data-name="Path 5070" d="M2.177-17.4a.064.064,0,0,1,.047.019.064.064,0,0,1,.019.047v.132a.064.064,0,0,1-.019.047.064.064,0,0,1-.047.019H.462a.064.064,0,0,1-.047-.019A.064.064,0,0,1,.4-17.205v-.132a.064.064,0,0,1,.019-.047A.064.064,0,0,1,.462-17.4ZM2.3-18.665a.191.191,0,0,1,.14-.058.191.191,0,0,1,.14.058.191.191,0,0,1,.058.14.191.191,0,0,1-.058.14.191.191,0,0,1-.14.058.178.178,0,0,1-.033,0l-.3.8H.528l-.3-.8a.178.178,0,0,1-.033,0,.191.191,0,0,1-.14-.058A.191.191,0,0,1,0-18.524a.191.191,0,0,1,.058-.14.191.191,0,0,1,.14-.058.191.191,0,0,1,.14.058.191.191,0,0,1,.058.14.221.221,0,0,1-.016.082l.3.177a.123.123,0,0,0,.1.014.121.121,0,0,0,.08-.06L1.2-18.9a.191.191,0,0,1-.074-.153.191.191,0,0,1,.058-.14.191.191,0,0,1,.14-.058.191.191,0,0,1,.14.058.191.191,0,0,1,.058.14.191.191,0,0,1-.074.153l.338.59a.121.121,0,0,0,.078.06.13.13,0,0,0,.1-.014l.3-.177a.221.221,0,0,1-.016-.082A.191.191,0,0,1,2.3-18.665Z" transform="translate(1.099 20.616)" fill="#ea9c00"/>
        <path id="Path_5069" data-name="Path 5069" d="M2.177-17.4a.064.064,0,0,1,.047.019.064.064,0,0,1,.019.047v.132a.064.064,0,0,1-.019.047.064.064,0,0,1-.047.019H.462a.064.064,0,0,1-.047-.019A.064.064,0,0,1,.4-17.205v-.132a.064.064,0,0,1,.019-.047A.064.064,0,0,1,.462-17.4ZM2.3-18.665a.191.191,0,0,1,.14-.058.191.191,0,0,1,.14.058.191.191,0,0,1,.058.14.191.191,0,0,1-.058.14.191.191,0,0,1-.14.058.178.178,0,0,1-.033,0l-.3.8H.528l-.3-.8a.178.178,0,0,1-.033,0,.191.191,0,0,1-.14-.058A.191.191,0,0,1,0-18.524a.191.191,0,0,1,.058-.14.191.191,0,0,1,.14-.058.191.191,0,0,1,.14.058.191.191,0,0,1,.058.14.221.221,0,0,1-.016.082l.3.177a.123.123,0,0,0,.1.014.121.121,0,0,0,.08-.06L1.2-18.9a.191.191,0,0,1-.074-.153.191.191,0,0,1,.058-.14.191.191,0,0,1,.14-.058.191.191,0,0,1,.14.058.191.191,0,0,1,.058.14.191.191,0,0,1-.074.153l.338.59a.121.121,0,0,0,.078.06.13.13,0,0,0,.1-.014l.3-.177a.221.221,0,0,1-.016-.082A.191.191,0,0,1,2.3-18.665Z" transform="translate(1.07 20.583)" fill="#fc0"/>
      </g>
    </g>
  </g>
</svg>
