<svg xmlns="http://www.w3.org/2000/svg" width="55.354" height="74.39" viewBox="0 0 55.354 74.39"><g transform="translate(0.354 0.39)"><path d="M34.6,8.74a18.437,18.437,0,0,0-4.378-1.407A18.8,18.8,0,0,0,26.679,7H25.321a18.269,18.269,0,0,0-3.546.34A19.7,19.7,0,0,0,6,26.833V42.027A25.473,25.473,0,0,1,.927,54.907,1.318,1.318,0,0,0,1.993,57H50a1.32,1.32,0,0,0,1.061-2.1A25.787,25.787,0,0,1,46,42.127V26.833a20.192,20.192,0,0,0-.526-4.593" fill="none" stroke="#9e9e9e" stroke-miterlimit="10" stroke-width="2"/><path d="M21,8V5.162a4.493,4.493,0,0,1,7.685-3.221A4.584,4.584,0,0,1,30,5.162V8" fill="none" stroke="#9e9e9e" stroke-miterlimit="10" stroke-width="2"/><path d="M19.016,57.153a6.868,6.868,0,0,0,13.617,0" fill="none" stroke="#9e9e9e" stroke-miterlimit="10" stroke-width="2"/><ellipse cx="10" cy="10.5" rx="10" ry="10.5" transform="translate(34 2)" fill="none" stroke="#9e9e9e" stroke-miterlimit="10" stroke-width="2"/><path d="M47.988,12.353c0,3.879-1.423,6.021-3.921,6.021-2.205,0-3.7-2.089-3.732-5.864,0-3.827,1.632-5.934,3.922-5.934C46.634,6.576,47.988,8.717,47.988,12.353Zm-6.126.174c0,2.968.9,4.653,2.291,4.653,1.561,0,2.307-1.844,2.307-4.757,0-2.809-.71-4.653-2.29-4.653C42.834,7.77,41.862,9.421,41.862,12.527Z" fill="#9e9e9e"/><ellipse cx="22.5" cy="3.5" rx="22.5" ry="3.5" transform="translate(3 66)" fill="#e0e0e0"/><rect width="55" height="74" fill="none"/></g></svg>